PathFileType	4	(X/Y/Z)	 s05c0302.trc
DataRate	CameraRate	NumFrames	NumMarkers	Units	OrigDataRate	OrigDataStartFrame	OrigNumFrames
200	200	4	49	mm	200	251	2000
Frame#	Time	racr			lacr			c7			jug			rlel			rdr			llel			ldr			s2			lic			ric			lasi			rasi			rpsi			lpsi			rgt			lgt			rth1			rth2			rth3			rth4			rlfc			rsh1			rsh2			rsh3			rsh4			rlmal			rmmal			rcal			rtoe			rmt5			lth1			lth2			lth4			lth3			llfc			lmfc			lsh1			lsh2			lsh3			lsh4			llmal			lmmal			lcal			ltoe			lmt5			SBIKE			LBIKE			RBIKE			
		X1	Y1	Z1	X2	Y2	Z2	X3	Y3	Z3	X4	Y4	Z4	X5	Y5	Z5	X6	Y6	Z6	X7	Y7	Z7	X8	Y8	Z8	X9	Y9	Z9	X10	Y10	Z10	X11	Y11	Z11	X12	Y12	Z12	X13	Y13	Z13	X14	Y14	Z14	X15	Y15	Z15	X16	Y16	Z16	X17	Y17	Z17	X18	Y18	Z18	X19	Y19	Z19	X20	Y20	Z20	X21	Y21	Z21	X22	Y22	Z22	X23	Y23	Z23	X24	Y24	Z24	X25	Y25	Z25	X26	Y26	Z26	X27	Y27	Z27	X28	Y28	Z28	X29	Y29	Z29	X30	Y30	Z30	X31	Y31	Z31	X32	Y32	Z32	X33	Y33	Z33	X34	Y34	Z34	X35	Y35	Z35	X36	Y36	Z36	X37	Y37	Z37	X38	Y38	Z38	X39	Y39	Z39	X40	Y40	Z40	X41	Y41	Z41	X42	Y42	Z42	X43	Y43	Z43	X44	Y44	Z44	X45	Y45	Z45	X46	Y46	Z46	X47	Y47	Z47	X48	Y48	Z48	X49	Y49	Z49	
251	1.2550	450.318145	1362.215533	-110.627090	468.519955	1372.814770	-381.443756	434.274139	1440.750060	-253.498557	409.668980	1286.299577	-249.210997	490.534338	1104.597096	-7.144850	684.688186	937.920419	-58.613350	488.252722	1110.656482	-519.358560	684.474340	928.522930	-454.558139	-98.521192	1180.727373	-280.188278	61.729314	1184.819124	-416.441979	41.414361	1203.974629	-133.854083	100.353555	1127.110531	-378.545198	89.149522	1142.614514	-156.730374	-66.319365	1227.141416	-243.248827	-57.508403	1227.405910	-327.768190	3.630048	1081.120886	-104.138815	-17.466270	1081.680469	-442.159246	97.254141	1003.215251	-89.162090	177.422623	964.323600	-87.178614	225.971929	891.344119	-90.764005	200.735687	991.649775	-96.874605	339.671001	786.717857	-114.804460	290.606252	686.418486	-87.351469	291.705950	598.301239	-99.942864	252.125181	522.606437	-102.980457	321.262913	594.521730	-125.281735	223.245874	390.217619	-110.664424	231.603967	422.001414	-189.905675	161.294909	337.806348	-155.996214	450.758675	400.573913	-142.992786	358.614326	348.293145	-80.120507	73.139717	970.938105	-463.400179	148.895286	929.970400	-463.674836	174.709189	953.803268	-450.385728	194.759045	852.191473	-467.980931	278.583428	725.530620	-437.648225	257.944890	720.212642	-327.631143	182.423433	642.871908	-460.384451	137.181163	569.327245	-444.024510	59.321943	526.536898	-443.822559	158.714778	551.882017	-417.631285	-23.751889	439.673985	-431.964926	11.621126	453.468909	-355.605404	-100.187388	429.122454	-386.898794	150.396630	273.079967	-395.421220	43.125344	302.886903	-456.254628	-170.196598	901.610582	-271.759924	-43.832299	84.632293	-474.948631	-52.084449	79.958559	-77.380114	
252	1.2600	452.993114	1362.205529	-110.681498	470.815686	1372.758429	-381.413573	436.945990	1440.709873	-253.668047	412.262617	1286.268944	-249.317275	490.720033	1104.198143	-6.636755	684.730590	937.989178	-58.373809	488.756034	1110.606010	-519.985982	684.389313	928.612055	-454.708451	-96.072366	1181.079230	-280.173597	64.009045	1185.226777	-416.447989	43.793456	1203.343218	-133.950070	102.583252	1127.398409	-378.864129	91.810976	1142.286909	-156.836839	-63.728108	1227.315503	-243.065306	-55.089665	1227.784827	-327.639856	6.051142	1080.742961	-104.429741	-15.114480	1082.747053	-442.424298	99.000817	1001.860957	-89.505975	178.543229	961.628182	-87.881787	225.945757	887.798268	-91.467160	202.222169	988.514782	-97.467387	338.490607	782.193240	-115.631086	289.843058	681.677737	-87.776220	291.448700	593.579196	-100.272412	252.214973	517.672184	-103.068232	320.859937	589.879798	-125.728150	223.976683	384.833893	-110.674880	232.474269	416.335350	-190.041980	162.172373	332.266404	-155.913782	451.578370	395.456145	-142.996804	359.439934	343.063336	-80.153087	76.154786	973.119505	-463.415622	152.181926	932.866778	-464.215787	177.787530	956.891561	-450.904310	198.791704	855.606172	-469.065306	283.636982	729.179585	-439.022076	264.207325	723.872525	-329.213423	186.822918	647.233158	-461.375420	140.991626	574.187252	-444.796114	62.738643	531.989587	-444.193103	162.454679	556.516952	-418.459994	-21.152764	446.179299	-432.141961	14.546061	459.294834	-355.860014	-98.019544	436.847571	-386.593467	149.904977	276.149026	-395.456797	43.213841	307.978094	-456.128785	-169.983434	901.609775	-271.706270	-43.825722	84.640465	-474.940688	-52.082078	79.966807	-77.369049	
253	1.2650	455.786078	1362.247942	-110.669913	473.245112	1372.700648	-381.559078	439.699483	1440.749268	-253.861146	414.937543	1286.219348	-249.399230	490.870395	1103.787759	-6.137356	684.784540	938.028947	-58.232170	489.049095	1110.495552	-520.614964	684.295593	928.663827	-454.874758	-93.363374	1181.531523	-280.113496	66.431060	1185.640371	-416.541774	46.890253	1203.175059	-133.575624	104.983348	1127.687288	-379.147581	94.686226	1141.960032	-157.027352	-61.000871	1227.368202	-242.872146	-52.520573	1228.225630	-327.520046	8.643765	1080.288679	-104.614787	-12.637976	1083.802513	-442.693116	100.797664	1000.332650	-89.815019	179.743344	958.849074	-88.428509	225.955593	884.424719	-92.270862	203.890061	985.489642	-97.952296	337.468077	777.633805	-116.369599	289.399105	677.018061	-88.296500	291.169430	588.904995	-100.621218	252.337194	512.693396	-103.130770	320.583830	585.212784	-126.259339	224.591936	379.616364	-110.582181	232.726425	411.194677	-190.061497	162.739468	327.057862	-155.749345	452.283942	390.341979	-143.080191	360.177258	337.977421	-80.222096	79.129156	975.269972	-463.671389	155.535815	935.695809	-464.762265	180.910828	959.939006	-451.402063	202.876737	858.933266	-470.172092	288.643447	732.717905	-440.353840	269.350183	726.951880	-330.262993	191.417639	651.037579	-461.905037	144.912394	578.716074	-445.556256	66.182125	537.376503	-444.618695	165.977668	560.805330	-418.912618	-18.565325	452.566184	-432.344465	17.937048	464.997297	-356.423549	-94.998025	444.704121	-386.828993	149.486757	279.314713	-395.538733	43.374151	313.157691	-455.985004	-169.651381	901.651498	-271.595577	-43.829133	84.667723	-474.926616	-52.087940	79.999221	-77.361063	
254	1.2700	458.708954	1362.362647	-110.605618	475.785666	1372.623263	-381.859818	442.561073	1440.873563	-254.102840	417.714557	1286.115903	-249.542823	491.089908	1103.482505	-5.672234	684.875278	938.083681	-58.228169	489.171086	1110.252579	-521.359870	684.180149	928.677494	-455.096652	-90.609984	1181.840885	-280.027596	68.941484	1186.085954	-416.530498	49.557962	1202.567067	-133.675541	107.457292	1127.925768	-379.399528	97.726746	1141.552891	-157.104791	-58.237204	1227.646198	-242.212941	-49.745942	1228.443111	-327.432588	11.366601	1079.864222	-104.918957	-9.974356	1084.747337	-442.980970	102.771415	998.852575	-90.142068	181.074066	956.166239	-88.862053	226.155824	880.897415	-92.960300	205.581377	982.427911	-98.478016	336.549300	773.120656	-117.158363	288.806543	672.312880	-88.680993	291.009941	584.309540	-100.228037	252.529296	507.899186	-103.181129	320.277507	580.623501	-126.655562	225.057174	374.509044	-110.503340	233.289363	405.804452	-190.086799	163.247648	321.827171	-155.617594	452.785225	385.151682	-143.174859	360.711734	332.817005	-80.251503	82.176167	977.315731	-463.919253	158.937230	938.479236	-465.304240	184.139397	962.863178	-451.870754	206.980198	862.150238	-471.279897	293.594400	736.179467	-441.701021	274.288567	728.787064	-330.958534	196.119117	654.967971	-463.001722	148.910710	583.228403	-446.402925	69.724847	542.741390	-445.155259	169.941286	564.823706	-419.953328	-15.919010	458.768819	-432.669858	21.407875	470.701643	-357.104497	-92.367197	452.247336	-386.865411	149.248165	282.495174	-395.596803	43.654635	318.179779	-455.941294	-169.220483	901.792349	-271.281169	-43.824994	84.683535	-474.916053	-52.099756	79.991226	-77.352096	
